<svg class="svg-icon" style="width: 1em; height: 1em;vertical-align: middle;fill: currentColor;overflow: hidden;" viewBox="0 0 1024 1024" version="1.1" xmlns="http://www.w3.org/2000/svg"><path d="M608.8 219.3c-14.2-22.2-33.8-37.8-55.6-46.8l-43.7-85.2-55.7 88c-19.3 9.3-36.6 24-49.4 44-74.5 116.5-162.5 276.5-162.5 382.2 0 174.3 95 311.4 259.6 311.4 1.7 0 3.4 0 5.1-0.1 1.7 0 3.4 0.1 5.1 0.1 164.7 0 259.6-137.2 259.6-311.4 0-105.7-88-265.7-162.5-382.2z" fill="#D87F3D" /><path d="M436.9 887.1c-12.4-0.3 20.6 4.8 7.6 2.7-1.7-0.3 12.3-10.3 10.6-10.7-1.7-0.2-3.3-0.6-5-0.8-121.1-14.8-229.8-177-204.8-349.9 13.8-95.5 111.5-222.9 198.6-322.5-4.8 6.7-9 14-12.5 21.9-56.1 126.5-124.3 288.4-116.7 393.8 8.1 113 11.4 213 122.2 265.5z" fill="#FFC07B" /><path d="M782.2 601.5c0 174.2-95 311.4-259.6 311.4-1.7 0-3.4 0-5.1-0.1-1.7 0-3.4 0.1-5.1 0.1-24.2 0-46.8-3-67.9-8.6 122.6-32.5 191.7-154.2 191.7-302.9 0-98-21.3-213.7-88.3-327.5-16.9-26.4-37.1-41.5-40.1-46.3-3.9-6.3-4.4-14-1.9-20.8 5.7-15.3 4.9-40.1 0.6-55.1 3.3-12.7 13.8-64.5 13.8-64.5l43.8 85.2c21.8 9 41.4 24.6 55.6 46.8 74.6 116.6 162.5 276.6 162.5 382.3z" fill="#C45626" /><path d="M484.7 913.9l-36.7-16c-0.4 1-0.6 1.8-0.7 1.8 4-14.7 33-219.9-13.7-334-21.7-53.1 55.4-289.8 55.4-289.8s-36.1 231.5-18.4 274.7c27.6 67.4 30.8 159.5 28.7 225-1.3 38.7-4.4 71.5-6.9 92.1-1.5 14.4-4.8 39.5-7.7 46.2z" fill="#C45626" /><path d="M498.4 936.7l-33.7-21.6c1.3-2 132.3-209.2 88.3-340.9-26.9-80.3-32.8-166.5-33-224.7-0.2-62.8 4.8-73.7 4.8-73.7s17.9 141.4 66.1 285.7c11.9 35.6 14.2 77.8 6.8 125.5-5.8 37.1-17.4 77.7-34.5 120.7-29 72.7-63.4 126.8-64.8 129zM392.9 648.2s25.9 208.1 68.1 228h-35.6c-0.1 0-56.1-77-32.5-228z" fill="#C45626" /><path d="M511.7 944.9c-1.7 0-3.4 0-5.1-0.1-1.7 0-3.4 0.1-5.1 0.1-44.9 0-86.7-9.2-124-27.4-35.8-17.4-67-42.7-92.6-75.1-24.5-31-43.4-67.8-56.1-109.3-12.5-40.7-18.8-84.9-18.8-131.6 0-52.2 18.9-119.7 56.2-200.5 27.6-59.7 65-126.6 111.3-199 13.7-21.4 32.2-38.9 53.9-51.2l51.1-80.7c6.1-9.7 17-15.4 28.5-14.8 11.5 0.5 21.8 7.1 27 17.4l38.7 75.4c24 12.3 44.3 30.8 59.1 54 46.3 72.4 83.7 139.3 111.3 199 37.3 80.8 56.2 148.2 56.2 200.5 0 46.6-6.3 90.9-18.8 131.6-12.8 41.6-31.7 78.4-56.1 109.3-25.7 32.5-56.8 57.7-92.6 75.1-37.5 18.1-79.2 27.3-124.1 27.3z m-5.1-64h0.7c1.5 0 2.9 0.1 4.4 0.1 68.5 0 126-27 166.5-78.2 39.4-49.9 61.2-121.4 61.2-201.2 0-42.9-16.9-101.3-50.3-173.6-26.3-57-62.4-121.4-107.1-191.3-10-15.6-24.1-27.6-40.9-34.5-7-2.9-12.8-8.2-16.3-15l-18.2-35.4-25.8 40.7c-3.2 5.1-7.8 9.1-13.2 11.7-14.9 7.2-27.2 18.1-36.3 32.4-44.7 69.9-80.7 134.3-107.1 191.3-33.4 72.3-50.3 130.7-50.3 173.6 0 79.9 21.7 151.3 61.2 201.2 40.4 51.2 98 78.2 166.5 78.2 1.5 0 3 0 4.4-0.1 0.1 0.1 0.4 0.1 0.6 0.1z" fill="#331008" /></svg>